<?xml version="1.0" encoding="utf-8"?>
<!-- Generator: Adobe Illustrator 23.0.3, SVG Export Plug-In . SVG Version: 6.00 Build 0)  -->
<svg version="1.1" id="Layer_1" xmlns="http://www.w3.org/2000/svg" xmlns:xlink="http://www.w3.org/1999/xlink" x="0px" y="0px"
	 viewBox="0 0 595.28 841.89" style="enable-background:new 0 0 595.28 841.89;" xml:space="preserve">
<style type="text/css">
	.st0{fill:#2E2E2F;}
	.st1{fill:#FFFFFF;}
	.st2{fill:#ED1C24;}
	.st3{fill:#C9252C;}
	.st4{fill:#962F34;}
	.st5{fill:#0B252F;}
</style>
<path class="st0" d="M180,468l19.68-30.14c-5.85-3.82-12.69-5.86-19.68-5.86c-19.75,0-36,16.25-36,36s16.25,36,36,36
	c6.93,0,13.72-2,19.54-5.77L180,468z"/>
<circle class="st1" cx="180" cy="468" r="18"/>
<circle class="st2" cx="225" cy="468" r="36"/>
<circle class="st0" cx="225" cy="468" r="18"/>
<circle class="st3" cx="279" cy="468" r="36"/>
<circle class="st0" cx="279" cy="468" r="18"/>
<path class="st3" d="M306,504L306,504c4.97,0,9-4.03,9-9v-81c0-4.97-4.03-9-9-9l0,0c-4.97,0-9,4.03-9,9v81
	C297,499.97,301.03,504,306,504z"/>
<circle class="st4" cx="333" cy="468" r="36"/>
<circle class="st5" cx="333" cy="468" r="18"/>
<path class="st4" d="M360,504L360,504c4.97,0,9-4.03,9-9v-27c0-4.97-4.03-9-9-9l0,0c-4.97,0-9,4.03-9,9v27
	C351,499.97,355.03,504,360,504z"/>
</svg>
